<svg xmlns="http://www.w3.org/2000/svg" viewBox="0 0 500 500"><g id="freepik--Floor--inject-436"><path id="freepik--floor--inject-436" d="M77.67,454.51c-95.18-54.95-95.18-144,0-199s249.49-55,344.66,0,95.18,144,0,199S172.84,509.46,77.67,454.51Z" style="fill:#f5f5f5"></path></g><g id="freepik--Gears--inject-436"><g id="freepik--gears--inject-436"><g id="freepik--Gear--inject-436"><path d="M382.35,139.34l-3.43-5.14a.84.84,0,0,0-.57-.28,9.92,9.92,0,0,1-2.32-.23.13.13,0,0,0-.11,0,.13.13,0,0,0-.05.09l-.45,4.5a.71.71,0,0,1-1.12.57l-4.63-2.67a1.63,1.63,0,0,1-.74-1.16l-.46-5.15a1.31,1.31,0,0,0-.36-.71,28.71,28.71,0,0,1-2.61-2.76.48.48,0,0,0-.49-.14l-3,1a1.1,1.1,0,0,1-1.29-.47l-3.4-5.9a1.1,1.1,0,0,1,.23-1.35l2.38-2a.54.54,0,0,0,.13-.5,27.33,27.33,0,0,1-1.09-3.64,1.38,1.38,0,0,0-.44-.67l-4.23-3a1.64,1.64,0,0,1-.63-1.22v-5.35a.74.74,0,0,1,.33-.65.73.73,0,0,1,.73,0l4.12,1.86s.07,0,.1,0,0,0,.07-.09a9.4,9.4,0,0,1,1-2.13.78.78,0,0,0,0-.63L357.31,96a1,1,0,0,1,.39-1.3l3-1.72a1,1,0,0,1,1.32.31l3.42,5.15a.85.85,0,0,0,.58.28,9.79,9.79,0,0,1,2.31.23.16.16,0,0,0,.12,0,.1.1,0,0,0,0-.09l.46-4.5a.71.71,0,0,1,1.12-.57l4.63,2.67a1.62,1.62,0,0,1,.74,1.15l.46,5.15a1.37,1.37,0,0,0,.36.72,28.71,28.71,0,0,1,2.61,2.76.52.52,0,0,0,.49.14l3-1a1.12,1.12,0,0,1,1.29.48l3.4,5.89a1.11,1.11,0,0,1-.23,1.36l-2.39,2a.51.51,0,0,0-.12.5,29.26,29.26,0,0,1,1.09,3.63,1.3,1.3,0,0,0,.44.67l4.22,3a1.63,1.63,0,0,1,.64,1.22v5.34a.77.77,0,0,1-.33.66.78.78,0,0,1-.73,0l-4.12-1.86a.12.12,0,0,0-.1,0,.15.15,0,0,0-.07.1,9.77,9.77,0,0,1-1,2.12.8.8,0,0,0,0,.64l2.74,5.53a1,1,0,0,1-.39,1.3l-3,1.72a1,1,0,0,1-.49.13A1,1,0,0,1,382.35,139.34Zm3.43-11.78,4.11,1.86v-5.34a.86.86,0,0,0-.31-.6l-4.23-3a2.06,2.06,0,0,1-.74-1.12,27.81,27.81,0,0,0-1.06-3.54,1.27,1.27,0,0,1,.34-1.33l2.39-2.06a.35.35,0,0,0,.06-.4l-3.4-5.89a.34.34,0,0,0-.38-.14l-3,1a1.26,1.26,0,0,1-1.33-.37,27,27,0,0,0-2.53-2.68,2.08,2.08,0,0,1-.6-1.21l-.47-5.15a.86.86,0,0,0-.36-.57l-4.62-2.67-.45,4.49a.87.87,0,0,1-.36.63.9.9,0,0,1-.72.14,8.87,8.87,0,0,0-2.13-.22,1.49,1.49,0,0,1-1.23-.61l-3.42-5.15a.24.24,0,0,0-.31-.07l-3,1.72a.24.24,0,0,0-.1.31l2.75,5.53a1.54,1.54,0,0,1-.08,1.37,8.77,8.77,0,0,0-.88,2,.91.91,0,0,1-.48.55.86.86,0,0,1-.72,0l-4.11-1.86v5.35a.88.88,0,0,0,.31.6l4.23,3a2.12,2.12,0,0,1,.74,1.13,27.73,27.73,0,0,0,1.05,3.54,1.24,1.24,0,0,1-.33,1.33l-2.39,2.05a.37.37,0,0,0-.07.41l3.41,5.89a.34.34,0,0,0,.38.14l3-1a1.27,1.27,0,0,1,1.32.38,28.28,28.28,0,0,0,2.54,2.68,2.15,2.15,0,0,1,.6,1.21l.46,5.14a.86.86,0,0,0,.37.57l4.62,2.68.45-4.5a.87.87,0,0,1,.35-.62.89.89,0,0,1,.73-.14,8.82,8.82,0,0,0,2.13.22,1.46,1.46,0,0,1,1.22.61l3.42,5.14a.25.25,0,0,0,.32.08l3-1.72a.24.24,0,0,0,.09-.31l-2.74-5.54a1.49,1.49,0,0,1,.08-1.36,9.2,9.2,0,0,0,.88-2,.9.9,0,0,1,.48-.56.84.84,0,0,1,.35-.07A1,1,0,0,1,385.78,127.56Zm-13.8-1.9h0c-4.41-2.55-8-8.77-8-13.87,0-2.55.88-4.47,2.48-5.39s3.69-.73,5.9.55c4.42,2.55,8,8.77,8,13.87,0,2.55-.88,4.46-2.48,5.38a4.33,4.33,0,0,1-2.22.58A7.58,7.58,0,0,1,372,125.66Zm-5.15-18.6c-1.35.78-2.1,2.46-2.1,4.73A16.9,16.9,0,0,0,372.36,125h0c2,1.14,3.8,1.33,5.15.55s2.1-2.46,2.1-4.73A16.89,16.89,0,0,0,372,107.6a6.78,6.78,0,0,0-3.3-1A3.65,3.65,0,0,0,366.83,107.06Z" style="fill:#ebebeb"></path></g><path id="freepik--gear--inject-436" d="M345,132.78l2.11,2.72a2.26,2.26,0,0,1,.43,1.21,14.7,14.7,0,0,0,.07,1.6.58.58,0,0,1-.6.65H345.5a.48.48,0,0,0-.48.66l1.16,3.69a1.55,1.55,0,0,0,.91.88l1.75.54a1.91,1.91,0,0,1,1,.86c.32.63.67,1.25,1,1.85a1.83,1.83,0,0,1,.26,1.21l-.5,2.13A1.54,1.54,0,0,0,351,152l2.43,2.76c.27.31.63.34.79.06l.88-1.51c.16-.28.56-.28.9,0a11,11,0,0,0,1.07.71,2.41,2.41,0,0,1,.92,1l1.28,3.35a1.32,1.32,0,0,0,1,.76l1.86.29c.39.07.64-.18.55-.54l-.79-3.23a.77.77,0,0,1,.43-.87,3.65,3.65,0,0,0,.54-.32.77.77,0,0,1,1,.15l2.19,2.18c.3.3.64.3.75,0l.79-2.06a1.35,1.35,0,0,0-.24-1.15l-2.11-2.71a2.27,2.27,0,0,1-.44-1.22,12.39,12.39,0,0,0-.07-1.59.58.58,0,0,1,.61-.65l1.48,0a.48.48,0,0,0,.49-.66L366.14,143a1.5,1.5,0,0,0-.92-.87l-1.75-.54a2,2,0,0,1-1-.86c-.32-.63-.66-1.25-1-1.86a1.91,1.91,0,0,1-.26-1.2l.5-2.13a1.51,1.51,0,0,0-.36-1.16l-2.43-2.76c-.28-.32-.63-.34-.8-.06l-.87,1.5c-.16.28-.56.29-.91,0a10.75,10.75,0,0,0-1.06-.7,2.45,2.45,0,0,1-.93-1L353,128a1.37,1.37,0,0,0-1-.77l-1.86-.29c-.39-.06-.64.18-.55.54l.79,3.24a.81.81,0,0,1-.43.87,3,3,0,0,0-.54.32.79.79,0,0,1-1-.16l-2.19-2.18c-.3-.3-.64-.29-.76,0l-.79,2.07A1.34,1.34,0,0,0,345,132.78Zm6.41,4.95c.93-2.43,3.82-2,6.45,1s4,7.39,3.08,9.82-3.82,2-6.45-1S350.46,140.16,351.39,137.73Z" style="fill:#ebebeb"></path></g></g><g id="freepik--Plant--inject-436"><g id="freepik--Plants--inject-436"><path d="M231.8,308.71c-9,2.52-16.12,19.1-16.16,35.15a150.64,150.64,0,0,0,1.82,25l4.27,2.47,1.23.71,4.29,2.47,2.64,1.53a70.93,70.93,0,0,1,0-19.79h0a48,48,0,0,1,2.87-10.67c2.68-6.76,7-13.53,8.68-18.18C245.61,315.82,240.22,306.36,231.8,308.71Z" style="fill:#916CE7"></path><g style="opacity:0.65"><path d="M231.8,308.71c-9,2.52-16.12,19.1-16.16,35.15a150.64,150.64,0,0,0,1.82,25l4.27,2.47,1.23.71,4.29,2.47,2.64,1.53a70.93,70.93,0,0,1,0-19.79h0a48,48,0,0,1,2.87-10.67c2.68-6.76,7-13.53,8.68-18.18C245.61,315.82,240.22,306.36,231.8,308.71Z" style="fill:#fff"></path></g><path d="M234.76,314.84c-9,10.13-15.71,33-11.8,57.22l-1.23-.71c-3.66-24.3,3.13-47.09,12.2-57.26a.56.56,0,0,1,.83.75Z" style="fill:#fff"></path><path d="M243,337.48c-2,1-6.73,5.23-8.25,7.93a62.84,62.84,0,0,0-4.94,10.85h0a50.57,50.57,0,0,0-2.6,18.26l2.64,1.53,1.23.71,1.12.64,4.39,2.53a51.86,51.86,0,0,1,4.3-11.8c5.16-10.21,14.67-17.72,15.39-23.43C257.18,337.84,252,332.84,243,337.48Z" style="fill:#916CE7"></path><path d="M243,337.48c-2,1-6.73,5.23-8.25,7.93a62.84,62.84,0,0,0-4.94,10.85h0a50.57,50.57,0,0,0-2.6,18.26l2.64,1.53,1.23.71,1.12.64,4.39,2.53a51.86,51.86,0,0,1,4.3-11.8c5.16-10.21,14.67-17.72,15.39-23.43C257.18,337.84,252,332.84,243,337.48Z" style="fill:#fff;opacity:0.30000000000000004"></path><path d="M248.34,343.73c-5.75,3.83-15.4,15.32-16.1,33.68l-1.12-.64c.82-18.37,10.31-29.78,16.6-34a.56.56,0,1,1,.62.93Z" style="fill:#fff"></path></g></g><g id="freepik--Folders--inject-436"><g id="freepik--Folder--inject-436"><g id="freepik--folder--inject-436"><path d="M51.45,385.57a1.53,1.53,0,0,1-.8-.22,1.56,1.56,0,0,1-.8-1.38V318.28a4.12,4.12,0,0,1,1.9-3.29L71.1,303.82a2,2,0,0,1,2.06-.06,2.11,2.11,0,0,1,1,1.27l1.56,5.21a.81.81,0,0,0,.45.54.76.76,0,0,0,.69-.09l41.92-24.19a1.77,1.77,0,0,1,1.62-.18l.21.11a1.78,1.78,0,0,1,.73,1.55v55.29a4.14,4.14,0,0,1-1.9,3.29L52.25,385.35A1.56,1.56,0,0,1,51.45,385.57ZM72.2,304.83a.85.85,0,0,0-.44.13L52.41,316.12a2.75,2.75,0,0,0-.87.94,2.52,2.52,0,0,0-.37,1.22V384a.27.27,0,0,0,.14.24.27.27,0,0,0,.28,0l67.18-38.8a2.84,2.84,0,0,0,1.24-2.15V288a.62.62,0,0,0-.11-.43l-.08-.05a.93.93,0,0,0-.4.14L77.51,311.83a2.13,2.13,0,0,1-1.83.18,2.08,2.08,0,0,1-1.22-1.39l-1.57-5.21a.83.83,0,0,0-.36-.5A.62.62,0,0,0,72.2,304.83Z" style="fill:#916CE7"></path></g><g id="freepik--folder--inject-436"><path d="M141.73,357.8l-.51-.29-.59-.34-.52-.3a3.82,3.82,0,0,1-1.65-2.47l-7-52.86a2.3,2.3,0,0,0-1-1.78l-.9-.52a2.22,2.22,0,0,0-2.25.15L91,320a3.31,3.31,0,0,1-2.74.26,3.51,3.51,0,0,1-.69-.83l-1.17-2a3.27,3.27,0,0,0-1.21-1.21l-.9-.52a3.32,3.32,0,0,0-3.31,0L64.3,325.34a5.37,5.37,0,0,0-2.43,5l8.41,63.11a4.58,4.58,0,0,0,2,3.07l1.62.94a2.15,2.15,0,0,0,1,.3,1.56,1.56,0,0,0,.82-.2l67-39.61A1,1,0,0,1,141.73,357.8Z" style="fill:#916CE7"></path><path d="M141.73,357.8l-1.61-.93a3.8,3.8,0,0,1-1.66-2.47l-7-52.86a2.06,2.06,0,0,0-3.31-1.63l-36,20.76a3.32,3.32,0,0,1-4.53-1.21l-1.17-2a3.31,3.31,0,0,0-4.53-1.21l-16.72,9.65a5.36,5.36,0,0,0-2.43,4.94l8.33,62.49a3.82,3.82,0,0,0,1.65,2.48l1.62.93a1,1,0,0,0,1,.1l67.38-38.9A1,1,0,0,1,141.73,357.8Z" style="opacity:0.25"></path><path d="M72.74,395.77l1.62.93a1,1,0,0,0,1,.1l67.38-38.9a1,1,0,0,1-1-.1l-1.61-.93a3.55,3.55,0,0,1-1.07-1.05l-67.37,38.9A3.53,3.53,0,0,0,72.74,395.77Z" style="opacity:0.25"></path><path d="M73.13,335.74V390.6a.83.83,0,0,0,.38.65l.42.25a.83.83,0,0,0,.75,0l60.78-35.1a.83.83,0,0,0,.38-.65V300.89a.83.83,0,0,0-.38-.65L135,300a.83.83,0,0,0-.75,0L73.51,335.09A.83.83,0,0,0,73.13,335.74Z" style="fill:#fafafa"></path><path d="M135.83,300.79a.65.65,0,0,0,0-.13l0-.07a.62.62,0,0,0-.12-.19.52.52,0,0,0-.1-.11l-.08-.05L135,300a.83.83,0,0,0-.75,0L73.51,335.09a.71.71,0,0,0-.26.28l1.17.68a.78.78,0,0,1,.26-.28l60.78-35.09C135.64,300.57,135.79,300.63,135.83,300.79Z" style="fill:#e0e0e0"></path><path d="M74.58,391.54c-.16,0-.27-.06-.27-.26V336.42a.72.72,0,0,1,.11-.37l-1.17-.68a.66.66,0,0,0-.11.37V390.6a.79.79,0,0,0,.37.65l.42.25A.86.86,0,0,0,74.58,391.54Z" style="fill:#e0e0e0"></path><g style="opacity:0.1"><path d="M74.58,391.54c-.16,0-.27-.06-.27-.26V336.42a.72.72,0,0,1,.11-.37l-1.17-.68a.66.66,0,0,0-.11.37V390.6a.79.79,0,0,0,.37.65l.42.25A.86.86,0,0,0,74.58,391.54Z"></path></g><path d="M144,305.37a2,2,0,0,0-.84-1.85l-.83-.48a2,2,0,0,0-2,.2L78.67,338.82a6.35,6.35,0,0,0-2.87,5v52.07a1,1,0,0,1-.43.93l.41.71,67.79-39.13a1,1,0,0,0,.42-.93Z" style="fill:#916CE7"></path><path d="M75.78,397.51a1.78,1.78,0,0,0,.83-1.64v-51.6a6.38,6.38,0,0,1,2.87-5l61.63-35.58c1.59-.91,2.88-.17,2.88,1.66v52.08a1,1,0,0,1-.42.93Z" style="fill:#fff;opacity:0.25"></path></g><path d="M124.4,349.56l-6.83-5.78c-.44-.37-1.17,0-1.62.91l-2.48,4.76c-.44.85-1.15,1.26-1.59.93L106.06,346c-.44-.34-1.16.08-1.6.92l-9.1,17.51v6l29-16.76Zm-3.47-9.78a6.23,6.23,0,0,0,2.61-5c0-1.92-1.16-2.81-2.61-2a6.24,6.24,0,0,0-2.6,5C118.33,339.73,119.49,340.61,120.93,339.78Zm6.78-17.93-35.65,20.6a3.93,3.93,0,0,0-1.64,3.13v32.17c0,1.2.74,1.76,1.64,1.24l35.65-20.61a3.92,3.92,0,0,0,1.63-3.13V323.08C129.34,321.88,128.61,321.32,127.71,321.85Zm-1.24,33.21L93.3,374.24V345.77l33.17-19.18Z" style="fill:#fff"></path></g><g id="freepik--folder--inject-436"><g id="freepik--folder--inject-436"><path d="M51.45,270.68a1.63,1.63,0,0,1-.8-.22,1.58,1.58,0,0,1-.8-1.38v-65.7a3.86,3.86,0,0,1,.55-1.87,3.9,3.9,0,0,1,1.35-1.41L71.1,188.93a2,2,0,0,1,2.06-.07,2.14,2.14,0,0,1,1,1.27l1.56,5.22a.81.81,0,0,0,.45.54.79.79,0,0,0,.69-.09l41.92-24.19a1.74,1.74,0,0,1,1.62-.18l.21.11a1.76,1.76,0,0,1,.73,1.54v55.29a4.11,4.11,0,0,1-1.9,3.29l-67.18,38.8A1.66,1.66,0,0,1,51.45,270.68ZM72.2,189.93a.87.87,0,0,0-.44.14L52.41,201.23a2.75,2.75,0,0,0-.87.94,2.48,2.48,0,0,0-.37,1.21v65.7a.28.28,0,0,0,.42.24l67.18-38.79a2.86,2.86,0,0,0,1.24-2.16V173.08a.64.64,0,0,0-.11-.43l-.08,0a.93.93,0,0,0-.4.14L77.51,196.94a2.13,2.13,0,0,1-1.83.18,2.11,2.11,0,0,1-1.22-1.39l-1.57-5.22a.81.81,0,0,0-.36-.49A.63.63,0,0,0,72.2,189.93Z" style="fill:#916CE7"></path></g><g id="freepik--folder--inject-436"><path d="M141.73,243.11l-.51-.3-.59-.34-.52-.3a3.8,3.8,0,0,1-1.65-2.47l-7-52.86a2.31,2.31,0,0,0-1-1.78l-.9-.52a2.2,2.2,0,0,0-2.25.16L91,205.34a3.31,3.31,0,0,1-2.74.26,3.56,3.56,0,0,1-.69-.84l-1.17-2a3.19,3.19,0,0,0-1.21-1.21l-.9-.52A3.32,3.32,0,0,0,81,201L64.3,210.65a5.36,5.36,0,0,0-2.43,4.94l8.41,63.12a4.6,4.6,0,0,0,2,3.07l1.62.93a2.15,2.15,0,0,0,1,.31,1.56,1.56,0,0,0,.82-.2l67-39.61A1,1,0,0,1,141.73,243.11Z" style="fill:#916CE7"></path><path d="M141.73,243.11l-1.61-.94a3.75,3.75,0,0,1-1.66-2.47l-7-52.86a2.07,2.07,0,0,0-3.31-1.63L92.14,206a3.31,3.31,0,0,1-4.53-1.21l-1.17-2a3.32,3.32,0,0,0-4.53-1.22l-16.72,9.65a5.37,5.37,0,0,0-2.43,5l8.33,62.49a3.8,3.8,0,0,0,1.65,2.47l1.62.94a1,1,0,0,0,1,.1l67.38-38.9A1,1,0,0,1,141.73,243.11Z" style="opacity:0.25"></path><path d="M72.74,281.07l1.62.94a1,1,0,0,0,1,.1l67.38-38.9a1,1,0,0,1-1-.1l-1.61-.94a3.4,3.4,0,0,1-1.07-1L71.68,280A3.49,3.49,0,0,0,72.74,281.07Z" style="opacity:0.25"></path><path d="M73.13,221v54.87a.83.83,0,0,0,.38.65l.42.24a.83.83,0,0,0,.75,0l60.78-35.09a.83.83,0,0,0,.38-.65V186.2a.83.83,0,0,0-.38-.65l-.42-.25a.83.83,0,0,0-.75,0L73.51,220.39A.83.83,0,0,0,73.13,221Z" style="fill:#fafafa"></path><path d="M135.83,186.1a.74.74,0,0,0,0-.14l0-.07a1,1,0,0,0-.12-.19.47.47,0,0,0-.1-.1l-.08,0-.42-.25a.83.83,0,0,0-.75,0L73.51,220.39a.78.78,0,0,0-.26.28l1.17.68a.78.78,0,0,1,.26-.28L135.46,186C135.64,185.88,135.79,185.93,135.83,186.1Z" style="fill:#e0e0e0"></path><path d="M74.58,276.84c-.16,0-.27-.06-.27-.26V221.72a.75.75,0,0,1,.11-.37l-1.17-.68a.68.68,0,0,0-.11.37v54.87a.77.77,0,0,0,.37.64l.42.25A.82.82,0,0,0,74.58,276.84Z" style="fill:#e0e0e0"></path><g style="opacity:0.1"><path d="M74.58,276.84c-.16,0-.27-.06-.27-.26V221.72a.75.75,0,0,1,.11-.37l-1.17-.68a.68.68,0,0,0-.11.37v54.87a.77.77,0,0,0,.37.64l.42.25A.82.82,0,0,0,74.58,276.84Z"></path></g><path d="M144,190.68a2,2,0,0,0-.84-1.86l-.83-.48a2,2,0,0,0-2,.21L78.67,224.13a6.32,6.32,0,0,0-2.87,5v52.08a1,1,0,0,1-.43.93l.41.71,67.79-39.14a1,1,0,0,0,.42-.93Z" style="fill:#916CE7"></path><path d="M75.78,282.82a1.78,1.78,0,0,0,.83-1.64v-51.6a6.37,6.37,0,0,1,2.87-5L141.11,189c1.59-.92,2.88-.18,2.88,1.66v52.07a1,1,0,0,1-.42.93Z" style="fill:#fff;opacity:0.25"></path></g><path d="M125.89,223.82l-16.64,9.61c-.84-4.73-4.32-6.64-8.48-4.24-4.8,2.77-8.68,10.19-8.68,16.58s3.88,9.33,8.68,6.56c4.19-2.42,7.7-8.42,8.5-14.16l9.49-5.48V237c0,1.31.8,1.92,1.79,1.35a4.28,4.28,0,0,0,1.78-3.41v-4.29l3.56-2.06a4.26,4.26,0,0,0,1.79-3.41C127.68,223.85,126.88,223.25,125.89,223.82Zm-25.12,24.53c-3.15,1.81-5.69-.11-5.69-4.3s2.54-9.06,5.69-10.88,5.69.11,5.69,4.3S103.91,246.53,100.77,248.35Z" style="fill:#fafafa"></path></g><g id="freepik--folder--inject-436"><g id="freepik--folder--inject-436"><path d="M51.45,155.78a1.62,1.62,0,0,1-.8-.21,1.59,1.59,0,0,1-.8-1.38V88.49a3.9,3.9,0,0,1,.55-1.88,4.07,4.07,0,0,1,1.35-1.41L71.1,74A2,2,0,0,1,73.16,74a2.11,2.11,0,0,1,1,1.27l1.56,5.21a.83.83,0,0,0,.45.55.79.79,0,0,0,.69-.09l41.92-24.19a1.78,1.78,0,0,1,1.62-.19l.21.11a1.78,1.78,0,0,1,.73,1.55v55.29a4.12,4.12,0,0,1-1.9,3.29l-67.18,38.8A1.65,1.65,0,0,1,51.45,155.78ZM72.2,75a1,1,0,0,0-.44.13L52.41,86.34a2.71,2.71,0,0,0-.87.93,2.52,2.52,0,0,0-.37,1.22v65.7a.28.28,0,0,0,.42.24l67.18-38.8a2.82,2.82,0,0,0,1.24-2.15V58.19a.64.64,0,0,0-.11-.43l-.08,0a.79.79,0,0,0-.4.14L77.51,82.05a2.09,2.09,0,0,1-1.83.17,2.06,2.06,0,0,1-1.22-1.39l-1.57-5.21a.81.81,0,0,0-.36-.49A.63.63,0,0,0,72.2,75Z" style="fill:#916CE7"></path></g><g id="freepik--folder--inject-436"><path d="M141.73,128.41l-.51-.29-.59-.34-.52-.3a3.82,3.82,0,0,1-1.65-2.47l-7-52.86a2.33,2.33,0,0,0-1-1.79l-.9-.51a2.2,2.2,0,0,0-2.25.15L91,90.64a3.31,3.31,0,0,1-2.74.26,3.37,3.37,0,0,1-.69-.84l-1.17-2a3.27,3.27,0,0,0-1.21-1.21l-.9-.52a3.32,3.32,0,0,0-3.31,0L64.3,96a5.37,5.37,0,0,0-2.43,5L70.28,164a4.58,4.58,0,0,0,2,3.07L74,168a2.15,2.15,0,0,0,1,.3,1.56,1.56,0,0,0,.82-.2l67-39.61A1,1,0,0,1,141.73,128.41Z" style="fill:#916CE7"></path><path d="M141.73,128.41l-1.61-.93a3.8,3.8,0,0,1-1.66-2.47l-7-52.86a2.06,2.06,0,0,0-3.31-1.63l-36,20.76a3.31,3.31,0,0,1-4.53-1.22l-1.17-2a3.31,3.31,0,0,0-4.53-1.21L65.19,96.47a5.36,5.36,0,0,0-2.43,4.94l8.33,62.49a3.82,3.82,0,0,0,1.65,2.48l1.62.93a1,1,0,0,0,1,.1l67.38-38.9A1,1,0,0,1,141.73,128.41Z" style="opacity:0.25"></path><path d="M72.74,166.38l1.62.93a1,1,0,0,0,1,.1l67.38-38.9a1,1,0,0,1-1-.1l-1.61-.93a3.55,3.55,0,0,1-1.07-1l-67.37,38.9A3.53,3.53,0,0,0,72.74,166.38Z" style="opacity:0.25"></path><path d="M73.13,106.35v54.86a.83.83,0,0,0,.38.65l.42.24a.83.83,0,0,0,.75,0L135.46,127a.83.83,0,0,0,.38-.65V71.5a.83.83,0,0,0-.38-.65l-.42-.24a.83.83,0,0,0-.75,0L73.51,105.7A.83.83,0,0,0,73.13,106.35Z" style="fill:#fafafa"></path><path d="M135.83,71.4a1,1,0,0,0,0-.14l0-.06a.82.82,0,0,0-.12-.2.94.94,0,0,0-.1-.1l-.08-.05-.42-.24a.83.83,0,0,0-.75,0L73.51,105.7a.71.71,0,0,0-.26.28l1.17.68a.78.78,0,0,1,.26-.28l60.78-35.1C135.64,71.18,135.79,71.24,135.83,71.4Z" style="fill:#e0e0e0"></path><path d="M74.58,162.15c-.16,0-.27-.06-.27-.26V107a.72.72,0,0,1,.11-.37L73.25,106a.66.66,0,0,0-.11.37v54.86a.79.79,0,0,0,.37.65l.42.25A.86.86,0,0,0,74.58,162.15Z" style="fill:#e0e0e0"></path><g style="opacity:0.1"><path d="M74.58,162.15c-.16,0-.27-.06-.27-.26V107a.72.72,0,0,1,.11-.37L73.25,106a.66.66,0,0,0-.11.37v54.86a.79.79,0,0,0,.37.65l.42.25A.86.86,0,0,0,74.58,162.15Z"></path></g><path d="M144,76a2.06,2.06,0,0,0-.84-1.86l-.83-.47a2,2,0,0,0-2,.2L78.67,109.43a6.35,6.35,0,0,0-2.87,5v52.07a1,1,0,0,1-.43.93l.41.71L143.57,129a1,1,0,0,0,.42-.92Z" style="fill:#916CE7"></path><path d="M75.78,168.12a1.78,1.78,0,0,0,.83-1.64v-51.6a6.38,6.38,0,0,1,2.87-5l61.63-35.58c1.59-.91,2.88-.17,2.88,1.66v52.08a1,1,0,0,1-.42.92Z" style="fill:#fff;opacity:0.25"></path></g><path id="freepik--Contact--inject-436" d="M109.88,118.66c3.58-2.07,6.48-7.61,6.48-12.38s-2.9-7-6.48-4.9-6.48,7.61-6.48,12.38S106.3,120.73,109.88,118.66Zm10.9,2.87c-.43-3.18-2.66-4.4-5.27-2.89l-11.26,6.5c-2.6,1.5-4.83,5.29-5.27,9l-.78,6.56c-.07.61.26,1,.7.69l22-12.68a1.69,1.69,0,0,0,.7-1.5Z" style="fill:#fafafa"></path></g></g><g id="freepik--Lines--inject-436"><g id="freepik--lines--inject-436"><path d="M190.4,146.14a2.94,2.94,0,0,1-1.43-.38,2.83,2.83,0,0,1-1.42-2.48V79.74a2,2,0,0,0-2.94-1.69L156,94.59l-.45-.78,28.63-16.54a2.86,2.86,0,0,1,4.29,2.47v63.54a2,2,0,0,0,2.93,1.7l27.8-16.06.45.78-27.8,16.06A2.94,2.94,0,0,1,190.4,146.14Z" style="fill:#455a64"></path><path d="M155.75,92.08c1-.58,1.83-.11,1.83,1.06a4,4,0,0,1-1.83,3.17c-1,.59-1.83.11-1.83-1A4.07,4.07,0,0,1,155.75,92.08Z" style="fill:#455a64"></path><path d="M219.4,127.2c1-.59,1.83-.12,1.83,1a4,4,0,0,1-1.83,3.17c-1,.59-1.83.11-1.83-1A4,4,0,0,1,219.4,127.2Z" style="fill:#455a64"></path><path d="M155.75,206.24c1-.58,1.83-.11,1.83,1.06a4.07,4.07,0,0,1-1.83,3.17c-1,.58-1.83.11-1.83-1.06A4,4,0,0,1,155.75,206.24Z" style="fill:#455a64"></path><path d="M219.4,148.33c1-.58,1.83-.11,1.83,1.06a4,4,0,0,1-1.83,3.17c-1,.59-1.83.11-1.83-1.05A4.07,4.07,0,0,1,219.4,148.33Z" style="fill:#455a64"></path><path d="M156,208.74l-.45-.78,29.35-17a5.36,5.36,0,0,0,2.68-4.63V171.94a6.24,6.24,0,0,1,3.12-5.41l28.51-16.47.45.78-28.51,16.47a5.35,5.35,0,0,0-2.67,4.63v14.44a6.25,6.25,0,0,1-3.13,5.41Z" style="fill:#455a64"></path><path d="M155.75,324.62c1-.58,1.83-.11,1.83,1.06a4,4,0,0,1-1.83,3.17c-1,.58-1.83.11-1.83-1.06A4,4,0,0,1,155.75,324.62Z" style="fill:#455a64"></path><path d="M219.4,190.77c1-.59,1.83-.11,1.83,1A4.07,4.07,0,0,1,219.4,195c-1,.58-1.83.11-1.83-1.06A4,4,0,0,1,219.4,190.77Z" style="fill:#455a64"></path><path d="M156,327.13l-.45-.78,29.34-17a5.38,5.38,0,0,0,2.68-4.64V214.22a6.27,6.27,0,0,1,3.12-5.42l28.51-16.46.45.78-28.51,16.47a5.35,5.35,0,0,0-2.67,4.63v90.54a6.28,6.28,0,0,1-3.13,5.42Z" style="fill:#455a64"></path></g></g><g id="freepik--Shield--inject-436"><g id="freepik--Title--inject-436"><g id="freepik--Box--inject-436"><polygon points="303.53 164.37 237.53 202.47 237.53 225.26 240.07 226.72 306.07 188.62 306.07 165.83 303.53 164.37" style="fill:#37474f"></polygon><polygon points="240.07 203.94 306.07 165.83 306.07 188.62 240.07 226.72 240.07 203.94" style="fill:#455a64"></polygon><polygon points="237.53 202.47 240.07 203.94 240.07 226.72 237.53 225.26 237.53 202.47" style="fill:#263238"></polygon></g><text transform="matrix(0.65, -0.37, 0, 1, 249.02, 215.37)" style="font-size:16.052047729492188px;fill:#fafafa;font-family:Rubik-Bold, Rubik;font-weight:700;letter-spacing:0.04996746581307115em">PRI<tspan x="29.79" y="0" style="letter-spacing:-0.001946784382327447em">V</tspan><tspan x="40.93" y="0" style="letter-spacing:-0.019954539918856335em">A</tspan><tspan x="52.14" y="0">TE</tspan></text></g><g id="freepik--shield--inject-436"><g id="freepik--shield--inject-436"><path d="M301.48,59.18c-10.65,9.57-19.85,9.07-25.61,4.64C270.13,74.89,260.93,86,250.28,88.75l-6.09,16.42s3.26,3.76,3.26,12.75a45,45,0,0,1-1.5,11.15c-1.11,4.43-2.54,9-2.54,16.68,0,5.19.68,10.24,3.31,14.84a18.42,18.42,0,0,0,6.66,6.67l-9.25-5.34a18.45,18.45,0,0,1-7-6.87c-2.62-4.6-3.31-9.65-3.31-14.84,0-7.66,1.43-12.25,2.54-16.69a44.41,44.41,0,0,0,1.51-11.14c0-9-3.26-12.75-3.26-12.75l6.08-16.42c10.65-2.74,19.85-13.86,25.6-24.93,5.75,4.43,15,4.93,25.6-4.63Z" style="fill:#916CE7"></path><path d="M269.65,60.23l-3.37-1.95A14.82,14.82,0,0,0,269.65,60.23Z" style="fill:#fff;opacity:0.8"></path><path d="M291.88,53.65c-8.76,7.87-16.54,8.92-22.23,6.58l6.22,3.59c5.76,4.43,15,4.93,25.61-4.64Z" style="fill:#fff;opacity:0.85"></path><path d="M266.28,58.28c-5.75,11.07-14.95,22.19-25.6,24.93l9.6,5.54c10.65-2.74,19.85-13.86,25.59-24.93Z" style="fill:#fff;opacity:0.65"></path><polygon points="240.68 83.21 234.6 99.63 244.19 105.17 250.28 88.75 240.68 83.21" style="fill:#fff;opacity:0.55"></polygon><path d="M246.72,160.59c-2.63-4.6-3.31-9.65-3.31-14.84,0-7.66,1.43-12.25,2.54-16.68a45,45,0,0,0,1.5-11.15c0-9-3.26-12.75-3.26-12.75l-9.59-5.54s3.26,3.76,3.26,12.75a44.41,44.41,0,0,1-1.51,11.14c-1.11,4.44-2.54,9-2.54,16.69,0,5.19.69,10.24,3.31,14.84a18.45,18.45,0,0,0,7,6.87l9.25,5.34A18.42,18.42,0,0,1,246.72,160.59Z" style="fill:#fff;opacity:0.4"></path><path d="M275.88,171.84c-15.92.17-25-4-29.16-11.25-2.63-4.6-3.31-9.65-3.31-14.84,0-7.66,1.42-12.25,2.54-16.69a44.87,44.87,0,0,0,1.51-11.14c0-9-3.26-12.74-3.26-12.74l6.07-16.43c10.66-2.74,19.86-13.86,25.61-24.93,5.74,4.43,14.94,4.93,25.6-4.64l6.08,9.42a46.26,46.26,0,0,0-3.26,16.5,26.8,26.8,0,0,0,1.51,9.4,32.88,32.88,0,0,1,2.53,13.76A55,55,0,0,1,305,126.92C300.9,138.92,291.79,153.64,275.88,171.84Z" style="fill:#916CE7"></path><path d="M275.88,171.84c-15.92.17-25-4-29.16-11.25-2.63-4.6-3.31-9.65-3.31-14.84,0-7.66,1.42-12.25,2.54-16.69a44.87,44.87,0,0,0,1.51-11.14c0-9-3.26-12.74-3.26-12.74l6.07-16.43c10.66-2.74,19.86-13.86,25.61-24.93,5.74,4.43,14.94,4.93,25.6-4.64l6.08,9.42a46.26,46.26,0,0,0-3.26,16.5,26.8,26.8,0,0,0,1.51,9.4,32.88,32.88,0,0,1,2.53,13.76A55,55,0,0,1,305,126.92C300.9,138.92,291.79,153.64,275.88,171.84Z" style="fill:#fff;opacity:0.75"></path><path d="M274,167.7c-12.32-.14-20.29-3.22-23.68-9.16-1.91-3.35-2.77-7.3-2.77-12.79a50.92,50.92,0,0,1,2-14.18l.39-1.5a48.37,48.37,0,0,0,1.63-12.15c0-6.55-1.57-10.84-2.81-13.21l4.66-12.61c11.4-4,19.64-15.22,24-22.6a18.87,18.87,0,0,0,7.44,1.5c5.15,0,10.39-1.92,15.61-5.71l2.45,3.8a50.76,50.76,0,0,0-2.79,16,31,31,0,0,0,1.75,10.78c.12.36.26.72.39,1.09a27.57,27.57,0,0,1,1.91,11.29,51.06,51.06,0,0,1-3.09,17.31C297.06,137.39,287.93,151.56,274,167.7Z" style="fill:#916CE7;opacity:0.75"></path><path d="M274,167.7c-12.32-.14-20.29-3.22-23.68-9.16-1.91-3.35-2.77-7.3-2.77-12.79a50.92,50.92,0,0,1,2-14.18l.39-1.5a48.37,48.37,0,0,0,1.63-12.15c0-6.55-1.57-10.84-2.81-13.21l4.66-12.61c11.4-4,19.64-15.22,24-22.6a18.87,18.87,0,0,0,7.44,1.5c5.15,0,10.39-1.92,15.61-5.71l2.45,3.8a50.76,50.76,0,0,0-2.79,16,31,31,0,0,0,1.75,10.78c.12.36.26.72.39,1.09a27.57,27.57,0,0,1,1.91,11.29,51.06,51.06,0,0,1-3.09,17.31C297.06,137.39,287.93,151.56,274,167.7Z" style="fill:#fff;opacity:0.4"></path><path d="M274,167.7c-12.32-.14-20.29-3.22-23.68-9.16-1.91-3.35-2.77-7.3-2.77-12.79a50.92,50.92,0,0,1,2-14.18l.39-1.5a48.37,48.37,0,0,0,1.63-12.15c0-6.55-1.57-10.84-2.81-13.21l4.66-12.61c11.4-4,19.64-15.22,24-22.6a18.87,18.87,0,0,0,7.44,1.5c5.15,0,10.39-1.92,15.61-5.71l2.45,3.8a50.76,50.76,0,0,0-2.79,16,31,31,0,0,0,1.75,10.78c.12.36.26.72.39,1.09a27.57,27.57,0,0,1,1.91,11.29,51.06,51.06,0,0,1-3.09,17.31C297.06,137.39,287.93,151.56,274,167.7Z" style="fill:#916CE7;opacity:0.15"></path><path d="M253.13,162c4.2,3.7,11.18,5.64,20.86,5.75l-6.18-3.52A45,45,0,0,1,253.13,162Z" style="fill:#fff;opacity:0.8"></path><polygon points="299.74 67.23 302.95 69.09 300.5 65.29 299.11 66.26 299.74 67.23" style="fill:#916CE7;opacity:0.25"></polygon><path d="M298.69,94a31,31,0,0,1-1.75-10.77,50.84,50.84,0,0,1,2.79-16l-.62-1c-4.77,3.15-9.53,4.74-14.22,4.74a18.87,18.87,0,0,1-7.44-1.5c-4.37,7.38-12.61,18.64-24,22.6l-4.66,12.61c1.24,2.37,2.81,6.66,2.81,13.21A48.37,48.37,0,0,1,250,130.07l-.39,1.5a50.92,50.92,0,0,0-2,14.18c0,5.49.86,9.44,2.77,12.79a13.93,13.93,0,0,0,4,4.36q6.18,2.82,16.45,2.95c13.94-16.15,23.07-30.32,27.14-42.13A51.3,51.3,0,0,0,301,106.4a27.57,27.57,0,0,0-1.91-11.29Z" style="fill:#916CE7"></path></g><path d="M281.6,134.13l-14.92,8.62,2.31-27c-1.79-1-2.92-3.27-2.92-6.61,0-5.94,3.61-12.85,8.07-15.42s8.08.15,8.08,6.1a20.25,20.25,0,0,1-2.93,10Z" style="fill:#916CE7"></path><path d="M281.6,134.13l-14.92,8.62,2.31-27c-1.79-1-2.92-3.27-2.92-6.61,0-5.94,3.61-12.85,8.07-15.42s8.08.15,8.08,6.1a20.25,20.25,0,0,1-2.93,10Z" style="opacity:0.25"></path><polygon points="281.6 134.13 268.08 126.33 266.68 142.75 281.6 134.13" style="opacity:0.15"></polygon><path d="M274.14,93.72c-2.92,1.68-5.47,5.22-6.88,9.13l12,7h0a20.25,20.25,0,0,0,2.93-10C282.22,93.87,278.6,91.14,274.14,93.72Z" style="opacity:0.15"></path></g></g><g id="freepik--Key--inject-436"><g id="freepik--key--inject-436"><path d="M250.32,377.58c-14.94-8.62-39.14-8.62-54.08,0-6.25,3.61-10.17,6-11.18,10.74v4.88a15.4,15.4,0,0,0,4.64,10.53l-67,33.83v4.86l7.51,4.33h21l8.24-4.75v-4.6l6.57-3.67,9.13-.8,3.64-2.1.37-8.16,6.75-3.9,9.89,2.24,12.88-7.44c13.86,3.32,30.42,1.74,41.69-4.77,7.49-4.32,11.22-10,11.2-15.66v-4.82C260.84,383.25,257,381.46,250.32,377.58Zm-9.33,14a17,17,0,0,1-15.32,0c-4.23-2.45-4.23-6.41,0-8.85a17,17,0,0,1,15.32,0C245.22,385.13,245.22,389.09,241,391.54Z" style="fill:#916CE7"></path><path d="M250.32,377.58c-14.94-8.62-39.14-8.62-54.08,0-6.25,3.61-10.17,6-11.18,10.74v4.88a15.4,15.4,0,0,0,4.64,10.53l-67,33.83v4.86l7.51,4.33h21l8.24-4.75v-4.6l6.57-3.67,9.13-.8,3.64-2.1.37-8.16,6.75-3.9,9.89,2.24,12.88-7.44c13.86,3.32,30.42,1.74,41.69-4.77,7.49-4.32,11.22-10,11.2-15.66v-4.82C260.84,383.25,257,381.46,250.32,377.58Zm-9.33,14a17,17,0,0,1-15.32,0c-4.23-2.45-4.23-6.41,0-8.85a17,17,0,0,1,15.32,0C245.22,385.13,245.22,389.09,241,391.54Z" style="opacity:0.2"></path><path d="M250.32,372.71c-14.94-8.62-39.14-8.62-54.08,0-12.27,7.09-14.43,17.78-6.54,26.15l-67,38.7,7.51,4.33h21l8.24-4.76-.56-4.29,7.13-4,9.13-.8,3.64-2.1.37-8.17,6.75-3.89,9.89,2.23,12.88-7.43c13.86,3.32,30.42,1.73,41.69-4.78C265.25,395.31,265.25,381.33,250.32,372.71Zm-9.33,14a17,17,0,0,1-15.32,0c-4.23-2.44-4.23-6.4,0-8.84a16.88,16.88,0,0,1,15.32,0C245.22,380.27,245.22,384.23,241,386.67Z" style="fill:#916CE7"></path><path d="M250.32,372.71c-14.94-8.62-39.14-8.62-54.08,0-12.27,7.09-14.43,17.78-6.54,26.15l-67,38.7,7.51,4.33h21l8.24-4.76-.56-4.29,7.13-4,9.13-.8,3.64-2.1.37-8.17,6.75-3.89,9.89,2.23,12.88-7.43c13.86,3.32,30.42,1.73,41.69-4.78C265.25,395.31,265.25,381.33,250.32,372.71Zm-9.33,14a17,17,0,0,1-15.32,0c-4.23-2.44-4.23-6.4,0-8.84a16.88,16.88,0,0,1,15.32,0C245.22,380.27,245.22,384.23,241,386.67Z" style="fill:#fff;opacity:0.30000000000000004"></path><path d="M223.28,406c-9.45,0-18.27-2.09-24.84-5.87-5.72-3.31-9-7.61-9-11.81s3.28-8.5,9-11.8c6.57-3.79,15.39-5.88,24.84-5.88s18.27,2.09,24.84,5.88c5.72,3.3,9,7.61,9,11.8s-3.28,8.5-9,11.81C241.55,403.91,232.73,406,223.28,406Zm0-34c-9.21,0-17.79,2-24.15,5.69-5.28,3.05-8.31,6.92-8.31,10.61s3,7.56,8.31,10.62c6.36,3.67,14.93,5.69,24.15,5.69s17.79-2,24.15-5.69c5.28-3.06,8.31-6.92,8.31-10.62s-3-7.56-8.31-10.61C241.07,374,232.49,372,223.28,372Z" style="fill:#916CE7"></path><path d="M237,408.91v4.87a64.89,64.89,0,0,1-28.42-.21v-4.86A64.74,64.74,0,0,0,237,408.91Z" style="opacity:0.1"></path><polygon points="195.74 416.14 195.74 421.01 185.85 418.77 185.85 413.91 195.74 416.14" style="opacity:0.1"></polygon><polygon points="179.1 417.81 179.1 422.67 178.73 430.83 178.73 425.97 179.1 417.81" style="opacity:0.1"></polygon><polygon points="175.09 428.07 175.09 432.93 165.96 433.74 165.96 428.87 175.09 428.07" style="opacity:0.1"></polygon><rect x="130.2" y="441.89" width="20.95" height="4.87" style="opacity:0.1"></rect><polygon points="122.69 437.56 122.69 442.42 130.2 446.75 130.2 441.89 126.91 439.99 126.91 442.09 125.09 441.04 125.09 438.92 122.69 437.56" style="opacity:0.15"></polygon><polygon points="125.09 438.92 126.91 439.99 126.91 442.09 125.09 441.04 125.09 438.92" style="fill:#916CE7"></polygon><polygon points="125.09 438.92 126.91 439.99 126.91 442.09 125.09 441.04 125.09 438.92" style="fill:#fff;opacity:0.30000000000000004"></polygon><polygon points="125.09 438.92 125.09 441.04 193.81 401.36 192 400.29 125.09 438.92" style="fill:#916CE7"></polygon><polygon points="192 400.29 192 402.41 193.81 401.36 192 400.29" style="opacity:0.15"></polygon></g></g><g id="freepik--speech-bubble--inject-436"><g id="freepik--speech-bubble--inject-436"><g id="freepik--speech-bubble--inject-436"><path d="M415.63,139.46l4.51-8.47-3.63-10.46v-6.4l11.09,6.4v6.41l-4.77,8.25a.69.69,0,0,1-.32.29h0Z" style="fill:#916CE7"></path><path d="M415.63,139.46l4.51-8.47-3.63-10.46v-6.4l11.09,6.4v6.41l-4.77,8.25a.69.69,0,0,1-.32.29h0Z" style="opacity:0.30000000000000004"></path><path d="M395.73,67.09a7.35,7.35,0,0,1,3.32-5.75l2.71-1.57a7.35,7.35,0,0,1,6.65,0l33.73,19.44A7.35,7.35,0,0,1,445.46,85v45.68a7.36,7.36,0,0,1-3.32,5.76L439.43,138a7.35,7.35,0,0,1-6.65,0l-12.14-7-4.76,8.24a.71.71,0,0,1-1.29-.12l-5-14.52-10.52-6a7.36,7.36,0,0,1-3.32-5.76Z" style="fill:#916CE7"></path><path d="M445.46,130.64a7.36,7.36,0,0,1-3.32,5.76L439.43,138a7.44,7.44,0,0,1-6.08.27c1.57.59,2.76-.29,2.76-2.19V90.37a6.83,6.83,0,0,0-1-3.28l9.36-5.4a6.78,6.78,0,0,1,1,3.27Z" style="opacity:0.30000000000000004"></path><path d="M395.84,66.15c.39-1.41,1.67-1.86,3.21-1l33.73,19.44a6.62,6.62,0,0,1,2.35,2.48l9.35-5.4a6.84,6.84,0,0,0-2.34-2.48L408.42,59.77a7.43,7.43,0,0,0-6.66,0l-2.71,1.57A7.35,7.35,0,0,0,395.84,66.15Z" style="fill:#fff;opacity:0.30000000000000004"></path></g><path id="freepik--shield--inject-436" d="M403.72,83.76c.29,8.46,2.19,25.25,12.74,35.41,7.41-4,11-15.65,10.75-22.85a1.37,1.37,0,0,0-.38-.9,1.88,1.88,0,0,0-.64-.44c-3.22-1.3-8.18-6.76-10.6-12.23-.17-.39-.42-.51-.68-.38h0l0,0a1,1,0,0,0-.23.2h0l0,.05c-2.28,2.84-6.94,3-10.13.72-.24-.17-.44-.22-.57-.15h0C403.76,83.3,403.7,83.48,403.72,83.76Z" style="fill:#fafafa"></path></g></g></svg>